<svg width="139" height="28" viewBox="0 0 139 28" fill="none" xmlns="http://www.w3.org/2000/svg">
<path d="M139 1.14703L138.142 0.28894L132.902 5.52877C131.68 4.57786 130.156 4.01184 128.501 4.01184C124.489 4.01184 121.237 7.33097 121.237 11.4259C121.237 13.0606 121.756 14.5707 122.634 15.7971L121.198 17.2333L121.216 17.2506L122.053 18.0944L123.422 16.7246C124.732 18.0325 126.523 18.84 128.501 18.84C132.513 18.84 135.765 15.5209 135.765 11.4259C135.765 9.46222 135.015 7.67889 133.795 6.35214L139 1.14703ZM134.301 11.4252C134.301 14.7066 131.699 17.3759 128.501 17.3759C126.93 17.3759 125.505 16.7314 124.459 15.6877L125.762 14.3851L124.925 13.5413L124.908 13.524L123.689 14.7428C123.065 13.7942 122.702 12.6531 122.702 11.4252C122.702 8.14378 125.304 5.47443 128.502 5.47443C129.751 5.47443 130.909 5.88347 131.857 6.57477L128.191 10.2403L128.209 10.2577L129.046 11.1014L132.759 7.38757C133.716 8.44943 134.303 9.86749 134.303 11.4237" fill="#344856"/>
<path d="M119.814 18.6174L112.457 25.9734L112.474 25.9908L113.315 26.8315L120.668 19.4785L119.831 18.6348L119.814 18.6174Z" fill="#344856"/>
<g clip-path="url(#clip0_348_1774)">
<path d="M19.4227 1.78503V5.69114H6.19287V11.8942H16.4252V15.8003H6.19287V22.9841H19.4184V26.9072H2.0957V1.78503H19.4227Z" fill="#344856"/>
<path d="M32.4335 23.2112C34.3781 23.2112 37.8639 22.4215 37.8639 19.9377C37.8639 14.5074 24.4473 17.1865 24.4473 8.21943C24.4473 3.06507 29.5592 1.08655 33.9578 1.08655C36.3736 1.08655 39.1588 1.83805 41.3327 2.87401L39.9146 6.46593C38.1271 5.73141 35.9193 4.99265 33.9748 4.99265C31.8561 4.99265 28.5274 5.46393 28.5274 8.23217C28.5274 13.6965 41.9441 10.9495 41.9441 19.9505C41.9441 25.0114 36.777 27.0961 32.4335 27.0961C29.7375 27.0961 26.931 26.1153 24.4642 25.0794L25.9885 21.5044C27.8991 22.2941 30.3489 23.2027 32.4335 23.2027V23.2112Z" fill="#344856"/>
<path d="M46.7988 1.78503H50.896V26.9072H46.7988V1.78503Z" fill="#344856"/>
<path d="M59.3652 1.78503L73.028 19.6555V1.78503H77.1082V26.9072H73.6055L59.9596 9.04105V26.9072H55.8794V1.78503H59.3652Z" fill="#344856"/>
<path d="M106.869 1.50684L96.446 16.4859V26.629H92.3659V16.5029L81.9043 1.50684H86.7232L94.4123 12.6307L102.101 1.50684H106.865H106.869Z" fill="#344856"/>
</g>
<defs>
<clipPath id="clip0_348_1774">
<rect width="106.869" height="26.0138" fill="white" transform="translate(0 1.08655)"/>
</clipPath>
</defs>
</svg>
