<svg width="91" height="18" viewBox="0 0 91 18" fill="none" xmlns="http://www.w3.org/2000/svg">
<g clip-path="url(#clip0_0_3)">
<path d="M91 0.980019L90.4383 0.418251L87.0079 3.84864C86.208 3.2261 85.2099 2.85554 84.1264 2.85554C81.4999 2.85554 79.3709 5.0285 79.3709 7.70938C79.3709 8.77955 79.7108 9.7682 80.2859 10.5711L79.3457 11.5113L79.3571 11.5227L79.905 12.0751L80.8018 11.1783C81.659 12.0345 82.8319 12.5632 84.1264 12.5632C86.7529 12.5632 88.8819 10.3902 88.8819 7.70938C88.8819 6.42378 88.3913 5.25627 87.5924 4.38768L91 0.980019ZM87.9239 7.70888C87.9239 9.85714 86.2203 11.6047 84.1264 11.6047C83.0982 11.6047 82.1649 11.1828 81.4806 10.4994L82.3334 9.64666L81.7855 9.09428L81.7741 9.08292L80.9762 9.88085C80.5681 9.2598 80.3299 8.51275 80.3299 7.70888C80.3299 5.56063 82.0335 3.81307 84.1274 3.81307C84.9451 3.81307 85.703 4.08086 86.3236 4.53344L83.9238 6.93318L83.9352 6.94454L84.4831 7.49692L86.9145 5.06556C87.541 5.76073 87.9249 6.6891 87.9249 7.70789" fill="#02EEFF"/>
<path d="M78.4393 12.4174L73.623 17.2332L73.6344 17.2446L74.1848 17.795L78.9986 12.9812L78.4507 12.4288L78.4393 12.4174Z" fill="#02EEFF"/>
<mask id="mask0_0_3" style="mask-type:luminance" maskUnits="userSpaceOnUse" x="0" y="0" width="70" height="18">
<path d="M69.9648 0.940384H0V17.971H69.9648V0.940384Z" fill="white"/>
</mask>
<g mask="url(#mask0_0_3)">
<path d="M12.7156 1.39766V3.9549H4.05439V8.01589H10.7532V10.5731H4.05439V15.2762H12.7128V17.8446H1.37207V1.39766H12.7156Z" fill="#02EEFF"/>
<path d="M21.2333 15.4249C22.5064 15.4249 24.7884 14.9079 24.7884 13.2818C24.7884 9.7267 16.0049 11.4806 16.0049 5.61011C16.0049 2.23567 19.3515 0.940376 22.2312 0.940376C23.8128 0.940376 25.6362 1.43237 27.0594 2.11059L26.131 4.46213C24.9608 3.98126 23.5154 3.49761 22.2423 3.49761C20.8553 3.49761 18.6761 3.80615 18.6761 5.61845C18.6761 9.19579 27.4596 7.39739 27.4596 13.2901C27.4596 16.6034 24.0768 17.9682 21.2333 17.9682C19.4683 17.9682 17.631 17.3261 16.016 16.6479L17.0139 14.3075C18.2647 14.8245 19.8685 15.4193 21.2333 15.4193V15.4249Z" fill="#02EEFF"/>
<path d="M30.6377 1.39766H33.32V17.8446H30.6377V1.39766Z" fill="#02EEFF"/>
<path d="M38.8651 1.39766L47.8098 13.097V1.39766H50.481V17.8446H48.1878L39.2542 6.148V17.8446H36.583V1.39766H38.8651Z" fill="#02EEFF"/>
<path d="M69.9652 1.21557L63.1412 11.022V17.6625H60.47V11.0331L53.6211 1.21557H56.7759L61.8098 8.49813L66.8437 1.21557H69.9624H69.9652Z" fill="#02EEFF"/>
</g>
</g>
<defs>
<clipPath id="clip0_0_3">
<rect width="91" height="18" fill="white"/>
</clipPath>
</defs>
</svg>
