<svg width="334" height="113" viewBox="0 0 334 113" fill="none" xmlns="http://www.w3.org/2000/svg">
<path d="M210.475 88.6326C209.19 88.6326 208.094 89.0855 207.177 90.0019C206.266 90.9182 205.808 92.0189 205.808 93.3091C205.808 94.5994 206.261 95.6895 207.177 96.6059C208.094 97.517 209.184 97.9751 210.475 97.9751C211.766 97.9751 212.872 97.5222 213.783 96.6059C214.69 95.6895 215.148 94.5889 215.148 93.3091C215.148 92.0294 214.695 90.913 213.783 90.0019C212.867 89.0855 211.766 88.6326 210.475 88.6326ZM212.235 95.1998C211.75 95.7264 211.165 95.9897 210.475 95.9897C209.785 95.9897 209.211 95.7264 208.721 95.1998C208.241 94.6731 207.999 94.0412 207.999 93.3039C207.999 92.5666 208.241 91.9346 208.721 91.408C209.211 90.8814 209.796 90.618 210.475 90.618C211.155 90.618 211.75 90.8761 212.235 91.408C212.714 91.9346 212.956 92.5666 212.956 93.3039C212.956 94.0412 212.714 94.6731 212.235 95.1998Z" fill="white"/>
<path d="M220.342 97.7489H222.491V94.1836H224.972V92.5194H222.491V90.6762H226.105V88.8329H220.342V97.7489Z" fill="white"/>
<path d="M243.8 94.0518L239.628 88.8065H237.932V97.7487H240.06V92.4982L244.253 97.7487H245.934V88.8328H243.8V94.0518Z" fill="white"/>
<path d="M251.618 97.7488H257.634V95.8424H253.704V94.0834H256.528V92.2928H253.704V90.6655H257.634V88.8223H251.618V97.7488Z" fill="white"/>
<path d="M271.415 94.6049L269.419 88.8961H268.049L266.052 94.6049L264.288 88.8329H262.07L264.862 97.7541H266.88L268.734 92.2877L270.594 97.7541H272.595L275.398 88.8329H273.18L271.415 94.6049Z" fill="white"/>
<path d="M290.628 92.4615L288.479 88.8329H286.161L289.553 94.2994V97.7489H291.687V94.2994L295.09 88.8329H292.772L290.628 92.4615Z" fill="white"/>
<path d="M303.319 88.6326C302.033 88.6326 300.938 89.0855 300.021 90.0019C299.11 90.9182 298.651 92.0189 298.651 93.3091C298.651 94.5994 299.104 95.6895 300.021 96.6059C300.938 97.517 302.028 97.9751 303.319 97.9751C304.61 97.9751 305.716 97.5222 306.627 96.6059C307.533 95.6895 307.992 94.5889 307.992 93.3091C307.992 92.0294 307.539 90.913 306.627 90.0019C305.711 89.0855 304.61 88.6326 303.319 88.6326ZM305.078 95.1998C304.594 95.7264 304.009 95.9897 303.319 95.9897C302.629 95.9897 302.055 95.7264 301.565 95.1998C301.085 94.6731 300.843 94.0412 300.843 93.3039C300.843 92.5666 301.085 91.9346 301.565 91.408C302.055 90.8814 302.639 90.618 303.319 90.618C303.998 90.618 304.594 90.8761 305.078 91.408C305.558 91.9346 305.8 92.5666 305.8 93.3039C305.8 94.0412 305.558 94.6731 305.078 95.1998Z" fill="white"/>
<path d="M321.109 97.7487L318.349 94.0728C318.48 93.9675 318.591 93.8622 318.686 93.7568C318.928 93.4935 319.107 93.1986 319.239 92.8668C319.302 92.7088 319.35 92.5403 319.387 92.356C319.408 92.2823 319.418 92.1927 319.423 92.0927V91.5766L319.397 91.3027C319.365 91.1237 319.313 90.9499 319.26 90.7866C319.144 90.439 318.97 90.1336 318.739 89.865C318.359 89.2699 317.685 88.9223 316.726 88.8275H312.938V97.7435H315.072V94.6837H316.147L318.438 97.7435H321.109V97.7487ZM316.41 93.1617H315.072V90.6813H316.41C317.026 90.813 317.332 91.2237 317.332 91.9136C317.332 92.6035 317.026 93.0196 316.41 93.1617Z" fill="white"/>
<path d="M333.831 97.7489L329.975 92.9618L333.304 88.8329H330.765L327.657 92.7248V88.8329H325.529V97.7489H327.657V93.4147L331.113 97.7489H333.831Z" fill="white"/>
<path d="M143.328 44.0058H143.728C147.832 43.8899 151.42 42.0678 154.502 38.5183L152.184 36.5434C149.771 39.3135 146.921 40.7986 143.634 40.9671C140.52 40.9671 137.897 39.9612 135.789 37.9653C133.566 35.8956 132.428 33.352 132.349 30.3133V29.8973C132.349 27.0324 133.356 24.5624 135.352 22.4506C137.422 20.2493 139.967 19.1065 143.007 19.0117H143.312C146.41 19.0117 149.218 20.323 151.783 22.9404L153.985 20.8128C150.851 17.5845 147.168 15.973 142.933 15.973C138.982 16.1416 135.716 17.6056 133.15 20.3599C130.585 23.0352 129.315 26.2477 129.315 29.9499V30.366C129.431 34.1841 130.853 37.4123 133.572 40.0508C136.29 42.6892 139.556 44.0005 143.333 44.0005" fill="white"/>
<path d="M170.09 44.2531C174.041 44.2531 177.402 42.8681 180.194 40.0769C182.986 37.2489 184.393 33.8679 184.393 29.9761C184.393 26.0843 182.986 22.6664 180.194 19.8752C177.423 17.063 174.057 15.6622 170.09 15.6622C166.123 15.6622 162.794 17.0683 159.986 19.8752C157.194 22.6664 155.787 26.0474 155.787 29.9761C155.787 33.9048 157.194 37.2489 159.986 40.0769C162.778 42.8681 166.139 44.2531 170.09 44.2531ZM162.135 21.9976C164.321 19.812 166.976 18.7114 170.095 18.7114C173.214 18.7114 175.853 19.812 178.076 21.9976C180.262 24.22 181.364 26.8795 181.364 29.9708C181.364 33.0622 180.262 35.7427 178.076 37.9283C175.874 40.1296 173.214 41.2303 170.095 41.2303C166.976 41.2303 164.321 40.1296 162.135 37.9283C159.933 35.7427 158.832 33.0885 158.832 29.9708C158.832 26.8531 159.933 24.1989 162.135 21.9976Z" fill="white"/>
<path d="M191.309 34.3946H198.126C200.613 34.3946 202.72 33.5204 204.49 31.7562C206.255 29.992 207.15 27.8644 207.15 25.3787C207.15 22.8929 206.255 20.7443 204.49 18.9801C202.725 17.2158 200.597 16.3416 198.126 16.3416H188.249V43.5528H191.304V34.3999L191.309 34.3946ZM191.309 19.3961H198.126C199.738 19.3961 201.145 19.9859 202.341 21.1445C203.521 22.3031 204.105 23.7092 204.105 25.3787C204.105 27.0481 203.515 28.4331 202.32 29.5917C201.161 30.7661 199.775 31.356 198.121 31.356H191.304V19.3908L191.309 19.3961Z" fill="white"/>
<path d="M213.888 16.2626H210.833V43.5475H213.888V16.2626Z" fill="white"/>
<path d="M230.972 44.0058H231.373C235.477 43.8899 239.064 42.0678 242.146 38.5183L239.828 36.5434C237.415 39.3135 234.565 40.7986 231.278 40.9671C228.165 40.9671 225.541 39.9612 223.434 37.9653C221.211 35.8956 220.073 33.352 219.994 30.3133V29.8973C219.994 27.0324 221 24.5624 222.997 22.4506C225.067 20.2493 227.611 19.1065 230.651 19.0117H230.957C234.054 19.0117 236.862 20.323 239.428 22.9404L241.63 20.8128C238.495 17.5845 234.808 15.973 230.572 15.973C226.621 16.1416 223.355 17.6056 220.789 20.3599C218.224 23.0352 216.954 26.2477 216.954 29.9499V30.366C217.07 34.1841 218.492 37.4123 221.211 40.0508C223.929 42.6892 227.195 44.0005 230.972 44.0005" fill="white"/>
<path d="M8.80274 68.6943C12.5378 69.5843 14.6661 71.0483 15.1982 73.1127C15.2561 73.4708 15.293 73.7184 15.293 73.8711C15.293 74.8401 14.7978 75.7512 13.8127 76.5832C12.6958 77.5101 11.2155 78.0842 9.41384 78.2527C9.01346 78.2895 8.65524 78.3106 8.29701 78.3106C6.43738 78.3106 4.14051 77.7418 1.41166 76.6201L0.236883 79.3902C3.30816 80.6805 6.0054 81.323 8.29701 81.323C11.3156 81.323 13.7969 80.5067 15.7513 78.8741C17.4792 77.3574 18.3327 75.688 18.3327 73.8869C18.3327 73.3918 18.2747 72.9021 18.1641 72.407C17.2369 69.1261 14.3711 66.909 9.535 65.7293C5.7578 64.8393 3.63478 63.3805 3.13958 61.3477C3.08163 61.0633 3.04476 60.8 3.04476 60.5525C3.04476 59.6256 3.49781 58.7514 4.43026 57.9351C5.47333 57.024 6.8799 56.4553 8.62363 56.2288C9.024 56.1709 9.49812 56.1551 10.0671 56.1551C11.795 56.1551 13.8811 56.6291 16.3677 57.577L17.4687 54.77C14.6608 53.6694 12.1954 53.1217 10.0513 53.1217C9.57714 53.1217 8.93444 53.1585 8.11789 53.2323C5.90004 53.5377 4.01935 54.354 2.46527 55.6811C0.832173 57.1399 0.015625 58.7514 0.015625 60.5367C0.015625 61.1055 0.0735736 61.6163 0.205275 62.0903C1.00075 65.2975 3.86657 67.4935 8.81854 68.689" fill="white"/>
<path d="M36.1439 53.6168H26.2769V80.7911H29.3323V71.6488H36.1439C38.6304 71.6488 40.7324 70.7745 42.4972 69.0103C44.262 67.2461 45.1523 65.1238 45.1523 62.638C45.1523 60.1523 44.262 58.0089 42.4972 56.2447C40.7324 54.4805 38.6094 53.6063 36.1439 53.6063M40.332 66.8511C39.1731 68.0255 37.7876 68.6153 36.1387 68.6153H29.3271V56.666H36.1387C37.7507 56.666 39.1572 57.2506 40.3478 58.4092C41.5226 59.5678 42.1126 60.9686 42.1126 62.638C42.1126 64.3075 41.5226 65.6925 40.3268 66.8459" fill="white"/>
<path d="M55.7781 53.5378H52.7227V80.7911H55.7781V53.5378Z" fill="white"/>
<path d="M68.79 55.8603L64.3701 60.284V80.7912H67.4098V59.1359L83.1929 80.7754H85.9428V53.5957H82.9084V75.2562L68.79 55.8603Z" fill="white"/>
<path d="M113.395 56.6872V53.6379L95.2783 53.6169V80.7912H113.395V77.7209H98.3338V68.1415H110.003V65.108H98.3338V56.6714L113.395 56.6872Z" fill="white"/>
<path d="M130.653 53.5378H127.597V80.7911H130.653V53.5378Z" fill="white"/>
<path d="M157.779 75.2562L141.974 53.5799H139.24V80.7911H142.28V59.1359L158.063 80.7753H160.813V53.5957H157.779V75.2562Z" fill="white"/>
<path d="M177.607 56.2342C178.007 56.1763 178.482 56.1605 179.05 56.1605C180.778 56.1605 182.865 56.6344 185.351 57.5824L186.452 54.7754C183.644 53.6747 181.179 53.127 179.035 53.127C178.561 53.127 177.918 53.1639 177.101 53.2376C174.883 53.5431 173.003 54.3541 171.449 55.6812C169.816 57.14 168.999 58.7515 168.999 60.5368C168.999 61.1056 169.057 61.6164 169.189 62.0904C169.984 65.2976 172.85 67.4936 177.802 68.6891C181.537 69.5791 183.665 71.0379 184.197 73.1076C184.255 73.4657 184.292 73.7132 184.292 73.8659C184.292 74.8349 183.797 75.7407 182.812 76.5781C181.695 77.505 180.215 78.079 178.413 78.2475C178.013 78.2844 177.654 78.3055 177.296 78.3055C175.437 78.3055 173.14 77.7367 170.411 76.615L169.236 79.3851C172.307 80.6753 175.005 81.3178 177.296 81.3178C180.315 81.3178 182.796 80.5015 184.751 78.8742C186.478 77.3575 187.332 75.6881 187.332 73.887C187.332 73.3972 187.274 72.9022 187.163 72.4071C186.236 69.1262 183.37 66.9091 178.534 65.7347C174.757 64.8447 172.634 63.3859 172.139 61.3531C172.081 61.0687 172.044 60.8054 172.044 60.5579C172.044 59.631 172.497 58.7568 173.429 57.9405C174.473 57.0294 175.879 56.4606 177.623 56.2342" fill="white"/>
<path d="M213.498 53.6169H192.574V56.6714H201.508V80.7912H204.564V56.6714H213.498V53.6169Z" fill="white"/>
<path d="M223.328 53.5378H220.273V80.7911H223.328V53.5378Z" fill="white"/>
<path d="M241.562 80.7912V56.6714H250.496V53.6169H229.572V56.6714H238.506V80.7912H241.562Z" fill="white"/>
<path d="M279.976 71.5014V53.6169H276.863V69.9636C276.863 72.2229 276.067 74.1556 274.455 75.7671C272.859 77.3786 270.926 78.1739 268.671 78.1739C266.416 78.1739 264.478 77.3786 262.887 75.7671C261.275 74.1556 260.458 72.2229 260.458 69.9636V53.6169H257.387V69.9636C257.387 73.076 258.488 75.7303 260.706 77.9316C262.908 80.1487 265.563 81.2494 268.671 81.2494C271.779 81.2494 274.229 80.2277 276.41 78.1791C278.575 76.1305 279.75 73.629 279.939 70.6693L279.976 71.5014Z" fill="white"/>
<path d="M298.878 80.7912V56.6714H307.812V53.6169H286.888V56.6714H295.822V80.7912H298.878Z" fill="white"/>
<path d="M332.878 77.7209H317.811V68.1415H329.48V65.108H317.811V56.6714L332.878 56.6872V53.6379L314.761 53.6169V80.7912H332.878V77.7209Z" fill="white"/>
<path d="M68.6321 49.7197L64.7758 53.5799L64.3702 53.9802L60.73 57.6192L62.3578 59.2465L64.3702 57.2295L67.4942 54.1119L70.3073 51.2944L76.5078 45.1011L74.88 43.4738L68.6321 49.7197Z" fill="white"/>
<path d="M20.1081 40.472H5.02569V30.882H16.7102V27.8433H5.02569V19.3961L20.1081 19.4119V16.3574L1.97021 16.3364V43.5476H20.1081V40.472Z" fill="white"/>
<path d="M27.462 21.8607L43.2662 43.5265H46.0161V16.3153H42.9765V38.0021L27.1565 16.2995H24.4224V43.5475H27.462V21.8607Z" fill="white"/>
<path d="M51.7324 43.5475L60.7355 43.5264C64.8552 43.5264 68.2583 42.252 70.9714 39.6925C73.7266 37.1278 75.1121 33.8995 75.1121 30.0288C75.1121 26.158 73.7266 22.9666 70.9714 20.3598C68.1793 17.795 64.7603 16.5048 60.7355 16.5048H51.7324V43.5475ZM54.7721 19.5435H60.7355C63.9859 19.5435 66.699 20.5493 68.8641 22.5611C71.0082 24.5728 72.0724 27.0585 72.0724 30.0235C72.0724 32.9885 71.0082 35.49 68.8641 37.4859C66.7358 39.4977 64.0175 40.5035 60.7355 40.5035H54.7721V19.5382V19.5435Z" fill="white"/>
<path d="M108.511 23.2668C108.511 23.8356 108.569 24.3517 108.701 24.8256C109.502 28.0381 112.367 30.2394 117.325 31.4349C121.065 32.3249 123.193 33.789 123.725 35.8586C123.783 36.2167 123.82 36.4643 123.82 36.617C123.82 37.586 123.325 38.4971 122.34 39.3344C121.218 40.2666 119.737 40.8353 117.936 41.0039C117.535 41.0407 117.177 41.0618 116.814 41.0618C114.954 41.0618 112.652 40.493 109.918 39.3713L108.738 42.1414C111.814 43.4316 114.511 44.0794 116.808 44.0794C119.827 44.0794 122.319 43.2631 124.273 41.6306C126.001 40.1138 126.854 38.4391 126.854 36.6381C126.854 36.143 126.797 35.648 126.681 35.1582C125.748 31.872 122.882 29.6496 118.041 28.4752C114.264 27.5852 112.136 26.1212 111.64 24.0884C111.582 23.804 111.546 23.5407 111.546 23.2931C111.546 22.361 112.004 21.4868 112.931 20.6705C113.974 19.7594 115.381 19.1906 117.13 18.9642C117.53 18.9063 118.004 18.8905 118.573 18.8905C120.301 18.8905 122.392 19.3644 124.879 20.3176L125.98 17.5054C123.167 16.4048 120.701 15.8518 118.552 15.8518C118.078 15.8518 117.43 15.8886 116.613 15.9676C114.39 16.2731 112.51 17.0894 110.956 18.4165C109.322 19.8805 108.506 21.492 108.506 23.2773" fill="white"/>
<path d="M28.0261 8.93187H30.1755V1.9013H32.7305V0.000144958H25.4658V1.9013H28.0261V8.93187Z" fill="white"/>
<path d="M39.5999 5.36125H43.0979V8.93184H45.2631V0.0106451H43.0979V3.39691H39.5999V0.00537872H37.4453V8.93184H39.5999V5.36125Z" fill="white"/>
<path d="M56.9634 7.02019H53.0387V5.26123H55.8624V3.47067H53.0387V1.84863H56.9634V0.000144958H50.9473V8.93187H56.9634V7.02019Z" fill="white"/>
<path d="M17.011 93.1406H1.69678V94.6889H17.011H179.446H194.766V93.1406H179.446H17.011Z" fill="white"/>
<path d="M111.793 9.8693L110.139 8.22093L100.056 18.3007C97.7064 16.468 94.7721 15.3832 91.585 15.3832C83.862 15.3832 77.6035 21.7712 77.6035 29.6497C77.6035 32.7937 78.6045 35.7007 80.2955 38.0601L77.5298 40.8249L77.5614 40.8565L79.1734 42.4785L81.8074 39.8454C84.3308 42.3627 87.7762 43.9162 91.5797 43.9162C99.3027 43.9162 105.561 37.5282 105.561 29.6497C105.561 25.8737 104.118 22.4401 101.768 19.8859L111.788 9.8693H111.793ZM102.753 29.6444C102.753 35.9588 97.7433 41.0935 91.5902 41.0935C88.5664 41.0935 85.8217 39.8559 83.8093 37.8441L86.3169 35.3374L84.7049 33.7153L84.6733 33.6837L82.329 36.0272C81.1279 34.2051 80.4272 32.0038 80.4272 29.6444C80.4272 23.3301 85.4371 18.1954 91.5902 18.1954C93.9925 18.1954 96.2208 18.9801 98.0436 20.3125L90.9897 27.3641L91.0213 27.3957L92.6333 29.0177L99.7821 21.8713C101.626 23.9146 102.753 26.6426 102.753 29.6392" fill="white"/>
<path d="M74.8695 43.4791L60.709 57.635L60.7406 57.6666L62.3579 59.2886L76.5132 45.138L74.9011 43.5159L74.8695 43.4791Z" fill="white"/>
</svg>
