<svg width="334" height="113" viewBox="0 0 334 113" fill="none" xmlns="http://www.w3.org/2000/svg">
<path d="M210.474 88.6326C209.189 88.6326 208.093 89.0855 207.176 90.0019C206.265 90.9182 205.807 92.0189 205.807 93.3091C205.807 94.5994 206.26 95.6895 207.176 96.6059C208.093 97.517 209.183 97.9751 210.474 97.9751C211.765 97.9751 212.871 97.5222 213.782 96.6059C214.689 95.6895 215.147 94.5889 215.147 93.3091C215.147 92.0294 214.694 90.913 213.782 90.0019C212.866 89.0855 211.765 88.6326 210.474 88.6326ZM212.234 95.1998C211.749 95.7264 211.164 95.9897 210.474 95.9897C209.784 95.9897 209.21 95.7264 208.72 95.1998C208.24 94.6731 207.998 94.0412 207.998 93.3039C207.998 92.5666 208.24 91.9346 208.72 91.408C209.21 90.8814 209.795 90.618 210.474 90.618C211.154 90.618 211.749 90.8761 212.234 91.408C212.713 91.9346 212.955 92.5666 212.955 93.3039C212.955 94.0412 212.713 94.6731 212.234 95.1998Z" fill="#344856"/>
<path d="M220.342 97.7489H222.491V94.1836H224.972V92.5194H222.491V90.6762H226.105V88.8329H220.342V97.7489Z" fill="#344856"/>
<path d="M243.8 94.0518L239.628 88.8065H237.932V97.7487H240.06V92.4982L244.253 97.7487H245.934V88.8328H243.8V94.0518Z" fill="#344856"/>
<path d="M251.619 97.7488H257.635V95.8424H253.705V94.0834H256.529V92.2928H253.705V90.6655H257.635V88.8223H251.619V97.7488Z" fill="#344856"/>
<path d="M271.416 94.6049L269.419 88.8961H268.05L266.053 94.6049L264.288 88.8329H262.07L264.862 97.7541H266.88L268.734 92.2877L270.594 97.7541H272.596L275.399 88.8329H273.181L271.416 94.6049Z" fill="#344856"/>
<path d="M290.627 92.4615L288.478 88.8329H286.16L289.553 94.2994V97.7489H291.686V94.2994L295.09 88.8329H292.772L290.627 92.4615Z" fill="#344856"/>
<path d="M303.318 88.6326C302.033 88.6326 300.937 89.0855 300.02 90.0019C299.109 90.9182 298.65 92.0189 298.65 93.3091C298.65 94.5994 299.103 95.6895 300.02 96.6059C300.937 97.517 302.027 97.9751 303.318 97.9751C304.609 97.9751 305.715 97.5222 306.626 96.6059C307.532 95.6895 307.991 94.5889 307.991 93.3091C307.991 92.0294 307.538 90.913 306.626 90.0019C305.71 89.0855 304.609 88.6326 303.318 88.6326ZM305.077 95.1998C304.593 95.7264 304.008 95.9897 303.318 95.9897C302.628 95.9897 302.054 95.7264 301.564 95.1998C301.084 94.6731 300.842 94.0412 300.842 93.3039C300.842 92.5666 301.084 91.9346 301.564 91.408C302.054 90.8814 302.638 90.618 303.318 90.618C303.997 90.618 304.593 90.8761 305.077 91.408C305.557 91.9346 305.799 92.5666 305.799 93.3039C305.799 94.0412 305.557 94.6731 305.077 95.1998Z" fill="#344856"/>
<path d="M321.108 97.7487L318.348 94.0728C318.479 93.9675 318.59 93.8622 318.685 93.7569C318.927 93.4935 319.106 93.1986 319.238 92.8668C319.301 92.7088 319.349 92.5403 319.386 92.356C319.407 92.2823 319.417 92.1927 319.422 92.0927V91.5766L319.396 91.3027C319.365 91.1237 319.312 90.9499 319.259 90.7866C319.143 90.4391 318.969 90.1336 318.738 89.865C318.358 89.2699 317.684 88.9223 316.725 88.8276H312.938V97.7435H315.071V94.6837H316.146L318.437 97.7435H321.108V97.7487ZM316.409 93.1618H315.071V90.6813H316.409C317.025 90.813 317.331 91.2237 317.331 91.9136C317.331 92.6035 317.025 93.0196 316.409 93.1618Z" fill="#344856"/>
<path d="M333.832 97.7489L329.976 92.9618L333.305 88.8329H330.766L327.658 92.7248V88.8329H325.529V97.7489H327.658V93.4147L331.113 97.7489H333.832Z" fill="#344856"/>
<path d="M143.327 44.0058H143.728C147.832 43.8899 151.419 42.0678 154.501 38.5183L152.183 36.5434C149.77 39.3135 146.92 40.7986 143.633 40.9671C140.52 40.9671 137.896 39.9612 135.789 37.9653C133.566 35.8956 132.428 33.352 132.349 30.3133V29.8973C132.349 27.0324 133.355 24.5625 135.352 22.4506C137.422 20.2493 139.966 19.1065 143.006 19.0117H143.312C146.409 19.0117 149.217 20.323 151.783 22.9404L153.985 20.8128C150.85 17.5845 147.168 15.973 142.932 15.973C138.981 16.1416 135.715 17.6056 133.15 20.3599C130.584 23.0352 129.314 26.2477 129.314 29.9499V30.366C129.43 34.1841 130.853 37.4123 133.571 40.0508C136.289 42.6892 139.556 44.0005 143.333 44.0005" fill="#344856"/>
<path d="M170.09 44.2531C174.041 44.2531 177.402 42.8681 180.194 40.0769C182.986 37.2489 184.393 33.8679 184.393 29.9761C184.393 26.0843 182.986 22.6664 180.194 19.8752C177.423 17.063 174.057 15.6622 170.09 15.6622C166.123 15.6622 162.794 17.0683 159.986 19.8752C157.194 22.6664 155.787 26.0474 155.787 29.9761C155.787 33.9048 157.194 37.2489 159.986 40.0769C162.778 42.8681 166.139 44.2531 170.09 44.2531ZM162.135 21.9976C164.321 19.812 166.976 18.7114 170.095 18.7114C173.214 18.7114 175.853 19.812 178.076 21.9976C180.262 24.22 181.364 26.8795 181.364 29.9708C181.364 33.0622 180.262 35.7427 178.076 37.9283C175.874 40.1296 173.214 41.2303 170.095 41.2303C166.976 41.2303 164.321 40.1296 162.135 37.9283C159.933 35.7427 158.832 33.0885 158.832 29.9708C158.832 26.8531 159.933 24.1989 162.135 21.9976Z" fill="#344856"/>
<path d="M191.309 34.3946H198.126C200.612 34.3946 202.719 33.5204 204.489 31.7562C206.254 29.992 207.15 27.8644 207.15 25.3787C207.15 22.8929 206.254 20.7443 204.489 18.98C202.725 17.2158 200.596 16.3416 198.126 16.3416H188.248V43.5528H191.304V34.3999L191.309 34.3946ZM191.309 19.3961H198.126C199.738 19.3961 201.144 19.9859 202.34 21.1445C203.52 22.3031 204.105 23.7092 204.105 25.3787C204.105 27.0481 203.515 28.4331 202.319 29.5917C201.16 30.7661 199.775 31.356 198.12 31.356H191.304V19.3908L191.309 19.3961Z" fill="#344856"/>
<path d="M213.889 16.2626H210.834V43.5475H213.889V16.2626Z" fill="#344856"/>
<path d="M230.973 44.0058H231.374C235.478 43.8899 239.065 42.0678 242.147 38.5183L239.829 36.5434C237.416 39.3135 234.566 40.7986 231.279 40.9671C228.166 40.9671 225.542 39.9612 223.435 37.9653C221.212 35.8956 220.074 33.352 219.995 30.3133V29.8973C219.995 27.0324 221.001 24.5625 222.998 22.4506C225.068 20.2493 227.612 19.1065 230.652 19.0117H230.958C234.055 19.0117 236.863 20.323 239.429 22.9404L241.631 20.8128C238.496 17.5845 234.809 15.973 230.573 15.973C226.622 16.1416 223.356 17.6056 220.79 20.3599C218.225 23.0352 216.955 26.2477 216.955 29.9499V30.366C217.071 34.1841 218.493 37.4123 221.212 40.0508C223.93 42.6892 227.196 44.0005 230.973 44.0005" fill="#344856"/>
<path d="M8.80274 68.6943C12.5378 69.5843 14.6661 71.0483 15.1982 73.1127C15.2561 73.4708 15.293 73.7184 15.293 73.8711C15.293 74.8401 14.7978 75.7512 13.8127 76.5832C12.6958 77.5101 11.2155 78.0842 9.41384 78.2527C9.01346 78.2895 8.65524 78.3106 8.29701 78.3106C6.43738 78.3106 4.14051 77.7418 1.41166 76.6201L0.236883 79.3902C3.30816 80.6805 6.0054 81.323 8.29701 81.323C11.3156 81.323 13.7969 80.5067 15.7513 78.8741C17.4792 77.3574 18.3327 75.688 18.3327 73.8869C18.3327 73.3918 18.2747 72.9021 18.1641 72.407C17.2369 69.1261 14.3711 66.909 9.535 65.7293C5.7578 64.8393 3.63478 63.3805 3.13958 61.3477C3.08163 61.0633 3.04476 60.8 3.04476 60.5525C3.04476 59.6256 3.49781 58.7514 4.43026 57.9351C5.47333 57.024 6.8799 56.4553 8.62363 56.2288C9.024 56.1709 9.49812 56.1551 10.0671 56.1551C11.795 56.1551 13.8811 56.6291 16.3677 57.577L17.4687 54.77C14.6608 53.6694 12.1954 53.1217 10.0513 53.1217C9.57714 53.1217 8.93444 53.1585 8.11789 53.2323C5.90004 53.5377 4.01935 54.354 2.46527 55.6811C0.832173 57.1399 0.015625 58.7514 0.015625 60.5367C0.015625 61.1055 0.0735736 61.6163 0.205275 62.0903C1.00075 65.2975 3.86657 67.4935 8.81854 68.689" fill="#344856"/>
<path d="M36.1444 53.6168H26.2773V80.7911H29.3328V71.6488H36.1444C38.6309 71.6488 40.7329 70.7746 42.4977 69.0103C44.2625 67.2461 45.1528 65.1238 45.1528 62.6381C45.1528 60.1523 44.2625 58.0089 42.4977 56.2447C40.7329 54.4805 38.6099 53.6063 36.1444 53.6063M40.3325 66.8511C39.1735 68.0255 37.788 68.6153 36.1391 68.6153H29.3275V56.666H36.1391C37.7512 56.666 39.1577 57.2506 40.3483 58.4092C41.5231 59.5678 42.1131 60.9686 42.1131 62.6381C42.1131 64.3075 41.5231 65.6925 40.3272 66.8459" fill="#344856"/>
<path d="M55.7781 53.5378H52.7227V80.7911H55.7781V53.5378Z" fill="#344856"/>
<path d="M68.791 55.8603L64.3711 60.284V80.7912H67.4108V59.1359L83.1939 80.7754H85.9438V53.5957H82.9094V75.2562L68.791 55.8603Z" fill="#344856"/>
<path d="M113.394 56.6872V53.6379L95.2773 53.6169V80.7912H113.394V77.7209H98.3328V68.1415H110.002V65.108H98.3328V56.6714L113.394 56.6872Z" fill="#344856"/>
<path d="M130.653 53.5378H127.598V80.7911H130.653V53.5378Z" fill="#344856"/>
<path d="M157.779 75.2562L141.974 53.5799H139.24V80.7911H142.28V59.1359L158.063 80.7753H160.813V53.5957H157.779V75.2562Z" fill="#344856"/>
<path d="M177.608 56.2342C178.008 56.1763 178.483 56.1605 179.051 56.1605C180.779 56.1605 182.866 56.6344 185.352 57.5824L186.453 54.7754C183.645 53.6748 181.18 53.127 179.036 53.127C178.562 53.127 177.919 53.1639 177.102 53.2376C174.884 53.5431 173.004 54.3541 171.45 55.6812C169.817 57.14 169 58.7515 169 60.5368C169 61.1056 169.058 61.6164 169.19 62.0904C169.985 65.2976 172.851 67.4936 177.803 68.6891C181.538 69.5791 183.666 71.0379 184.198 73.1076C184.256 73.4657 184.293 73.7132 184.293 73.8659C184.293 74.8349 183.798 75.7407 182.813 76.5781C181.696 77.505 180.216 78.079 178.414 78.2475C178.014 78.2844 177.655 78.3055 177.297 78.3055C175.438 78.3055 173.141 77.7367 170.412 76.615L169.237 79.3851C172.308 80.6753 175.006 81.3178 177.297 81.3178C180.316 81.3178 182.797 80.5015 184.752 78.8742C186.479 77.3575 187.333 75.6881 187.333 73.887C187.333 73.3972 187.275 72.9022 187.164 72.4071C186.237 69.1262 183.371 66.9091 178.535 65.7347C174.758 64.8447 172.635 63.3859 172.14 61.3531C172.082 61.0687 172.045 60.8054 172.045 60.5579C172.045 59.631 172.498 58.7568 173.43 57.9405C174.474 57.0294 175.88 56.4606 177.624 56.2342" fill="#344856"/>
<path d="M213.499 53.6169H192.574V56.6714H201.509V80.7912H204.564V56.6714H213.499V53.6169Z" fill="#344856"/>
<path d="M223.329 53.5378H220.273V80.7911H223.329V53.5378Z" fill="#344856"/>
<path d="M241.562 80.7912V56.6714H250.497V53.6169H229.572V56.6714H238.507V80.7912H241.562Z" fill="#344856"/>
<path d="M279.976 71.5014V53.6169H276.863V69.9636C276.863 72.2229 276.067 74.1556 274.455 75.7671C272.859 77.3786 270.926 78.1739 268.671 78.1739C266.416 78.1739 264.478 77.3786 262.887 75.7671C261.275 74.1556 260.458 72.2229 260.458 69.9636V53.6169H257.387V69.9636C257.387 73.076 258.488 75.7303 260.706 77.9316C262.908 80.1487 265.563 81.2494 268.671 81.2494C271.779 81.2494 274.229 80.2277 276.41 78.1791C278.575 76.1305 279.75 73.629 279.939 70.6693L279.976 71.5014Z" fill="#344856"/>
<path d="M298.877 80.7912V56.6714H307.811V53.6169H286.887V56.6714H295.821V80.7912H298.877Z" fill="#344856"/>
<path d="M332.879 77.7209H317.812V68.1415H329.481V65.108H317.812V56.6714L332.879 56.6872V53.6379L314.762 53.6169V80.7912H332.879V77.7209Z" fill="#344856"/>
<path d="M68.6326 49.7197L64.7763 53.5799L64.3707 53.9802L60.7305 57.6192L62.3583 59.2465L64.3707 57.2295L67.4946 54.1118L70.3078 51.2944L76.5083 45.1011L74.8805 43.4738L68.6326 49.7197Z" fill="#344856"/>
<path d="M20.1086 40.472H5.02617V30.882H16.7107V27.8433H5.02617V19.3961L20.1086 19.4119V16.3574L1.9707 16.3364V43.5476H20.1086V40.472Z" fill="#344856"/>
<path d="M27.4615 21.8607L43.2657 43.5265H46.0156V16.3153H42.976V38.0021L27.156 16.2995H24.4219V43.5476H27.4615V21.8607Z" fill="#344856"/>
<path d="M51.7324 43.5475L60.7355 43.5264C64.8552 43.5264 68.2583 42.252 70.9714 39.6925C73.7266 37.1278 75.1121 33.8995 75.1121 30.0288C75.1121 26.158 73.7266 22.9666 70.9714 20.3598C68.1793 17.795 64.7603 16.5048 60.7355 16.5048H51.7324V43.5475ZM54.7721 19.5435H60.7355C63.9859 19.5435 66.699 20.5493 68.8641 22.5611C71.0082 24.5728 72.0724 27.0585 72.0724 30.0235C72.0724 32.9885 71.0082 35.49 68.8641 37.4859C66.7358 39.4977 64.0175 40.5035 60.7355 40.5035H54.7721V19.5382V19.5435Z" fill="#344856"/>
<path d="M108.511 23.2668C108.511 23.8356 108.569 24.3517 108.701 24.8256C109.502 28.0381 112.367 30.2394 117.325 31.4349C121.065 32.3249 123.193 33.789 123.725 35.8586C123.783 36.2167 123.82 36.4643 123.82 36.617C123.82 37.586 123.325 38.4971 122.34 39.3344C121.218 40.2666 119.737 40.8353 117.936 41.0039C117.535 41.0407 117.177 41.0618 116.814 41.0618C114.954 41.0618 112.652 40.493 109.918 39.3713L108.738 42.1414C111.814 43.4316 114.511 44.0794 116.808 44.0794C119.827 44.0794 122.319 43.2631 124.273 41.6306C126.001 40.1138 126.854 38.4391 126.854 36.6381C126.854 36.143 126.797 35.648 126.681 35.1582C125.748 31.872 122.882 29.6496 118.041 28.4752C114.264 27.5852 112.136 26.1212 111.64 24.0883C111.582 23.804 111.546 23.5406 111.546 23.2931C111.546 22.361 112.004 21.4868 112.931 20.6705C113.974 19.7594 115.381 19.1906 117.13 18.9642C117.53 18.9063 118.004 18.8905 118.573 18.8905C120.301 18.8905 122.392 19.3644 124.879 20.3176L125.98 17.5054C123.167 16.4047 120.701 15.8518 118.552 15.8518C118.078 15.8518 117.43 15.8886 116.613 15.9676C114.39 16.2731 112.51 17.0894 110.956 18.4165C109.322 19.8805 108.506 21.492 108.506 23.2773" fill="#344856"/>
<path d="M28.0271 8.93187H30.1764V1.9013H32.7314V0.000144958H25.4668V1.9013H28.0271V8.93187Z" fill="#344856"/>
<path d="M39.5999 5.36125H43.0979V8.93183H45.2631V0.0106432H43.0979V3.3969H39.5999V0.00537682H37.4453V8.93183H39.5999V5.36125Z" fill="#344856"/>
<path d="M56.9634 7.02019H53.0387V5.26123H55.8624V3.47067H53.0387V1.84863H56.9634V0.000144958H50.9473V8.93187H56.9634V7.02019Z" fill="#344856"/>
<path d="M17.0115 93.1406H1.69727V94.6889H17.0115H179.447H194.766V93.1406H179.447H17.0115Z" fill="#344856"/>
<path d="M111.793 9.8693L110.139 8.22094L100.055 18.3007C97.7059 16.468 94.7716 15.3832 91.5845 15.3832C83.8615 15.3832 77.603 21.7712 77.603 29.6497C77.603 32.7937 78.604 35.7007 80.295 38.0601L77.5293 40.8249L77.5609 40.8565L79.1729 42.4785L81.807 39.8454C84.3304 42.3627 87.7757 43.9162 91.5792 43.9162C99.3022 43.9162 105.561 37.5282 105.561 29.6497C105.561 25.8737 104.117 22.4401 101.768 19.8859L111.787 9.8693H111.793ZM102.753 29.6444C102.753 35.9588 97.7428 41.0935 91.5897 41.0935C88.5659 41.0935 85.8212 39.8559 83.8088 37.8441L86.3164 35.3374L84.7044 33.7153L84.6728 33.6837L82.3285 36.0273C81.1274 34.2051 80.4267 32.0038 80.4267 29.6444C80.4267 23.3301 85.4366 18.1954 91.5897 18.1954C93.992 18.1954 96.2204 18.9801 98.0431 20.3125L90.9892 27.3641L91.0208 27.3957L92.6328 29.0177L99.7816 21.8713C101.625 23.9147 102.753 26.6426 102.753 29.6392" fill="#344856"/>
<path d="M74.8695 43.4791L60.709 57.635L60.7406 57.6666L62.3579 59.2886L76.5132 45.138L74.9011 43.5159L74.8695 43.4791Z" fill="#344856"/>
</svg>
